<svg width="400" height="400" viewBox="0 0 400 400" xmlns="http://www.w3.org/2000/svg">
  <!-- Peça 1 - Azul -->
  <path d="M50 50 L150 50 C160 50 170 60 170 70 C170 80 160 90 150 90 L130 90 C120 90 110 100 110 110 L110 150 L50 150 Z" fill="#3b82f6" opacity="0.8"/>
  
  <!-- Peça 2 - Verde -->
  <path d="M170 50 L270 50 L270 110 C270 120 260 130 250 130 C240 130 230 120 230 110 L230 90 C230 80 220 70 210 70 C200 70 190 80 190 90 L190 110 L170 110 Z" fill="#10b981" opacity="0.8"/>
  
  <!-- Peça 3 - Amarelo -->
  <path d="M270 50 L350 50 L350 130 L290 130 C280 130 270 120 270 110 Z" fill="#f59e0b" opacity="0.8"/>
  
  <!-- Peça 4 - Roxo -->
  <path d="M50 150 L110 150 L110 190 C110 200 120 210 130 210 C140 210 150 200 150 190 L150 170 L170 170 L170 230 L50 230 Z" fill="#8b5cf6" opacity="0.8"/>
  
  <!-- Peça 5 - Rosa -->
  <path d="M170 170 L230 170 L230 190 C230 200 240 210 250 210 C260 210 270 200 270 190 L270 170 L290 170 L290 230 L170 230 Z" fill="#ec4899" opacity="0.8"/>
  
  <!-- Peça 6 - Laranja -->
  <path d="M290 130 L350 130 L350 210 C350 220 340 230 330 230 L310 230 C300 230 290 220 290 210 Z" fill="#f97316" opacity="0.8"/>
  
  <!-- Peça 7 - Ciano -->
  <path d="M50 230 L170 230 L170 270 C170 280 180 290 190 290 C200 290 210 280 210 270 L210 250 L230 250 L230 310 L50 310 Z" fill="#06b6d4" opacity="0.8"/>
  
  <!-- Peça 8 - Verde claro -->
  <path d="M230 250 L290 250 L290 270 C290 280 300 290 310 290 C320 290 330 280 330 270 L330 250 L350 250 L350 310 L230 310 Z" fill="#84cc16" opacity="0.8"/>
  
  <!-- Peça 9 - Vermelho -->
  <path d="M50 310 L230 310 L230 350 L110 350 C100 350 90 340 90 330 C90 320 100 310 110 310 L130 310 C140 310 150 300 150 290 C150 280 140 270 130 270 L110 270 C100 270 90 280 90 290 L90 310 L50 310 Z" fill="#ef4444" opacity="0.8"/>
  
  <!-- Peça 10 - Índigo -->
  <path d="M230 310 L350 310 L350 350 L270 350 C260 350 250 340 250 330 C250 320 260 310 270 310 L290 310 C300 310 310 300 310 290 C310 280 300 270 290 270 L270 270 C260 270 250 280 250 290 L250 310 L230 310 Z" fill="#6366f1" opacity="0.8"/>
</svg>